<svg width="300" height="300" viewBox="0 0 300 300" fill="none" xmlns="http://www.w3.org/2000/svg">
    <g clip-path="url(#clip0_883_2)">
        <path d="M300 9.15527e-05H0V300H300V9.15527e-05Z" fill="#1A1C2B" />
        <path d="M300 9.15527e-05H0V300H300V9.15527e-05Z" fill="#1A1C2B" />
        <path opacity="0.684" d="M0 0V300L300 0H0Z" fill="#0A0B15" />
        <path opacity="0.684" d="M0 0V300L300 0H0Z" fill="#0A0B15" />
        <path
            d="M149.793 170.613C178.405 170.613 201.599 147.418 201.599 118.807C201.599 90.1946 178.405 67 149.793 67C121.181 67 97.9863 90.1946 97.9863 118.807C97.9863 147.418 121.181 170.613 149.793 170.613Z"
            fill="#0B6CFF" />
        <path
            d="M149.793 177.169C137.607 177.169 125.54 178.552 114.282 181.237C103.024 183.923 92.7945 187.861 84.1779 192.824C75.5613 197.787 68.7262 203.679 64.063 210.163C59.3998 216.648 56.9998 223.597 57 230.616C57.019 231.156 57.0521 231.696 57.0995 232.235L242.499 231.61C242.528 231.326 242.553 231.041 242.574 230.757V230.439C242.492 216.296 232.682 202.748 215.291 192.763C197.9 182.779 174.348 177.171 149.793 177.169Z"
            fill="#0B6CFF" />
    </g>
    <defs>
        <clipPath id="clip0_883_2">
            <rect width="300" height="300" fill="white" />
        </clipPath>
    </defs>
</svg>